<svg width="24" height="24" viewBox="0 0 24 24" fill="none" xmlns="http://www.w3.org/2000/svg">
<path d="M16.3659 2C15.386 2.06877 14.2706 2.6857 13.6235 3.43941C13.0352 4.12224 12.5788 5.12174 12.7647 6.0933C13.7482 6.12319 14.7647 5.4951 15.3741 4.72943C15.9524 3.99769 16.3659 3.00788 16.3659 2Z" fill="black"/>
<path d="M19.8801 8.43611C19.0108 7.37798 17.8124 6.76662 16.6811 6.76662C15.0247 6.76662 14.3277 7.56353 13.1795 7.56353C11.9983 7.56353 11.1046 6.7698 9.6771 6.7698C8.26648 6.7698 6.74813 7.64672 5.87338 9.06322C4.66456 11.0568 4.92066 14.7721 6.99878 17.7808C7.74465 18.8868 8.77647 20.1346 10.1041 20.1443C11.1926 20.1534 11.5071 19.4427 12.963 19.4353C14.414 19.4257 14.7003 20.1518 15.7948 20.1416C17.1299 20.131 18.2316 18.7456 18.9775 17.6396C19.5835 16.7587 19.8066 16.3285 20.2891 15.3371C17.6922 14.3294 17.2712 10.5907 19.8801 8.43611Z" fill="black"/>
</svg>
