<svg width="20" height="20" viewBox="0 0 20 20" fill="none" xmlns="http://www.w3.org/2000/svg">
<path d="M10.0003 17.45C11.2503 17.45 12.292 18.3333 13.3337 18.3333C15.8337 18.3333 18.3337 11.6667 18.3337 8.15001C18.3053 7.07061 17.8513 6.0462 17.0709 5.30005C16.2904 4.5539 15.2466 4.14651 14.167 4.16668C12.317 4.16668 10.8337 5.36668 10.0003 5.83334C9.16699 5.36668 7.68366 4.16668 5.83366 4.16668C4.75345 4.14431 3.70841 4.55097 2.92743 5.29758C2.14646 6.04419 1.69322 7.06989 1.66699 8.15001C1.66699 11.6667 4.16699 18.3333 6.66699 18.3333C7.70866 18.3333 8.75033 17.45 10.0003 17.45Z" stroke="#111111" stroke-width="1.66667" stroke-linecap="round" stroke-linejoin="round"/>
<path d="M8.33301 1.66666C9.16634 2.08332 9.99967 3.33332 9.99967 5.83332" stroke="#111111" stroke-width="1.66667" stroke-linecap="round" stroke-linejoin="round"/>
</svg>
