<svg width="24" height="24" viewBox="0 0 24 24" fill="none" xmlns="http://www.w3.org/2000/svg">
<path d="M23.04 12.2615C23.04 11.4458 22.9691 10.6619 22.8373 9.90906H12V14.3571H18.1891C17.9225 15.7958 17.1618 17.0123 15.9791 17.8337V20.7409H19.5846C21.7791 18.7082 23.04 15.763 23.04 12.2615Z" fill="#4285F4"/>
<path d="M12 23.5008C15.105 23.5008 17.7082 22.468 19.5845 20.7409L15.9791 17.8337C14.9609 18.5137 13.6186 18.9259 12 18.9259C8.99998 18.9259 6.45999 16.8748 5.55362 14.1319H1.82373V17.1336C3.68909 20.8875 7.51816 23.5008 12 23.5008Z" fill="#34A853"/>
<path d="M5.5537 14.1318C5.3237 13.4518 5.19455 12.726 5.19455 11.9772C5.19455 11.2283 5.3237 10.5025 5.5537 9.8225V6.8208H1.8238C1.02912 8.43808 0.57959 10.1599 0.57959 11.9772C0.57959 13.7946 1.02912 15.5163 1.8238 17.1336L5.5537 14.1318Z" fill="#FBBC05"/>
<path d="M12 5.02865C13.7718 5.02865 15.3464 5.63683 16.5955 6.81365L19.6718 3.73733C17.7036 1.90448 15.1005 0.777344 12 0.777344C7.51816 0.777344 3.68909 3.39062 1.82373 7.14451L5.55362 10.1462C6.45999 7.40334 8.99998 5.02865 12 5.02865Z" fill="#EA4335"/>
</svg>
