<svg width="20" height="20" viewBox="0 0 20 20" fill="none" xmlns="http://www.w3.org/2000/svg">
<path d="M10.0003 18.3333C14.6027 18.3333 18.3337 14.6024 18.3337 10C18.3337 5.39763 14.6027 1.66667 10.0003 1.66667C5.39795 1.66667 1.66699 5.39763 1.66699 10C1.66699 14.6024 5.39795 18.3333 10.0003 18.3333Z" stroke="#111111" stroke-width="1.66667" stroke-linecap="round" stroke-linejoin="round"/>
<path d="M10.0003 13.3333C11.8413 13.3333 13.3337 11.841 13.3337 10C13.3337 8.15906 11.8413 6.66667 10.0003 6.66667C8.15938 6.66667 6.66699 8.15906 6.66699 10C6.66699 11.841 8.15938 13.3333 10.0003 13.3333Z" stroke="#111111" stroke-width="1.66667" stroke-linecap="round" stroke-linejoin="round"/>
<path d="M17.6417 6.66667H10" stroke="#111111" stroke-width="1.66667" stroke-linecap="round" stroke-linejoin="round"/>
<path d="M3.29199 5.05L7.11699 11.6667" stroke="#111111" stroke-width="1.66667" stroke-linecap="round" stroke-linejoin="round"/>
<path d="M9.06641 18.2833L12.8831 11.6667" stroke="#111111" stroke-width="1.66667" stroke-linecap="round" stroke-linejoin="round"/>
</svg>
