<svg width="15" height="15" viewBox="0 0 15 15" fill="none" xmlns="http://www.w3.org/2000/svg">
<path fill-rule="evenodd" clip-rule="evenodd" d="M3.3125 5.62573C3.3125 4.38253 3.80636 3.19025 4.68544 2.31117C5.56451 1.43209 6.7568 0.938232 8 0.938232C9.2432 0.938232 10.4355 1.43209 11.3146 2.31117C12.1936 3.19025 12.6875 4.38253 12.6875 5.62573C12.6875 6.37886 12.4469 7.23573 12.1038 8.08073C11.7569 8.93323 11.29 9.81011 10.8038 10.6151C10.36 11.3488 9.87875 12.0591 9.36188 12.7432C8.93187 13.3089 8.53938 13.7632 8.2925 13.9601C8.20944 14.0264 8.1063 14.0626 8 14.0626C7.8937 14.0626 7.79056 14.0264 7.7075 13.9601C7.46062 13.7632 7.06813 13.3089 6.63812 12.7432C6.12146 12.0591 5.64041 11.3488 5.19687 10.6151C4.70937 9.81011 4.24312 8.93323 3.89687 8.08011C3.55312 7.23573 3.3125 6.37886 3.3125 5.62573ZM8 7.65636C8.53872 7.65636 9.05538 7.44235 9.43631 7.06142C9.81724 6.68048 10.0312 6.16383 10.0312 5.62511C10.0312 5.08639 9.81724 4.56973 9.43631 4.1888C9.05538 3.80786 8.53872 3.59386 8 3.59386C7.46128 3.59386 6.94462 3.80786 6.56369 4.1888C6.18276 4.56973 5.96875 5.08639 5.96875 5.62511C5.96875 6.16383 6.18276 6.68048 6.56369 7.06142C6.94462 7.44235 7.46128 7.65636 8 7.65636Z" fill="white"/>
</svg>
